<svg width="200" height="200" viewBox="0 0 200 200" fill="none" xmlns="http://www.w3.org/2000/svg">
<path d="M100 120.254C127.969 120.254 150.664 97.5781 150.664 69.5898C150.664 41.6016 127.969 18.9453 100 18.9453C72.0312 18.9453 49.3359 41.6211 49.3359 69.6094C49.3359 97.5977 72.0312 120.254 100 120.254ZM100 27.0508C123.457 27.0508 142.559 46.1328 142.559 69.6094C142.559 93.0859 123.457 112.148 100 112.148C76.543 112.148 57.4414 93.0664 57.4414 69.5898C57.4414 46.1133 76.543 27.0508 100 27.0508V27.0508ZM100 128.359C57.6172 128.359 22.5586 149.512 18.9844 176.445C18.6523 178.867 20.5859 181.035 23.0273 181.035C25.039 181.035 26.7383 179.57 27.0117 177.578C30.0195 154.961 62.3633 136.465 100 136.465C137.637 136.465 169.98 154.961 172.988 177.578C173.262 179.57 174.961 181.035 176.973 181.035C179.434 181.035 181.348 178.867 181.016 176.445C177.441 149.512 142.383 128.359 100 128.359Z" fill="#265881"/>
</svg>
