<svg width="200" height="200" viewBox="0 0 200 200" fill="none" xmlns="http://www.w3.org/2000/svg">
<path d="M108.911 34.5645C110.236 33.2904 111.291 31.7592 112.012 30.0632C112.732 28.3673 113.104 26.5419 113.105 24.6972C113.101 21.0658 111.666 17.5842 109.116 15.0164C106.565 12.4485 103.107 11.0041 99.5 11C95.893 11.0041 92.4349 12.4485 89.8844 15.0164C87.3339 17.5842 85.8992 21.0658 85.8951 24.6972C85.8951 28.5737 87.5088 32.0711 90.0888 34.5645C52.3342 39.2522 23 71.7221 23 110.981C23 153.449 57.3182 188 99.5 188C141.682 188 176 153.449 176 110.981C176 71.7221 146.666 39.2522 108.911 34.5645V34.5645ZM99.5 15.4328C104.574 15.4328 108.702 19.5885 108.702 24.6972C108.702 29.806 104.574 33.9617 99.5 33.9617C94.4257 33.9617 90.298 29.806 90.298 24.6972C90.298 19.5885 94.4257 15.4328 99.5 15.4328V15.4328ZM99.5 183.567C59.7442 183.567 27.4029 151.006 27.4029 110.981C27.4029 70.9553 59.7442 38.3944 99.5 38.3944C139.256 38.3944 171.597 70.9553 171.597 110.981C171.597 151.006 139.256 183.567 99.5 183.567V183.567Z" fill="#265881"/>
<path d="M99 46C63.1577 46 34 75.1577 34 111C34 129.1 41.4418 145.487 53.4179 157.284C53.5172 157.47 53.6144 157.657 53.7711 157.814C53.9698 158.013 54.2016 158.154 54.4422 158.26C66.0872 169.245 81.7654 176 99 176C134.842 176 164 146.84 164 111C164 75.1599 134.842 46 99 46ZM143.968 151.553L137.388 144.972C137.183 144.768 136.939 144.605 136.672 144.494C136.404 144.383 136.117 144.326 135.827 144.326C135.537 144.326 135.25 144.383 134.982 144.494C134.714 144.605 134.471 144.768 134.266 144.972C134.061 145.177 133.899 145.421 133.788 145.689C133.677 145.956 133.62 146.243 133.62 146.533C133.62 146.823 133.677 147.11 133.788 147.378C133.899 147.646 134.061 147.889 134.266 148.094L140.887 154.712C130.575 164.596 116.798 170.881 101.574 171.521V162.39C101.574 161.805 101.341 161.243 100.927 160.829C100.513 160.415 99.9519 160.183 99.3665 160.183C98.781 160.183 98.2195 160.415 97.8055 160.829C97.3915 161.243 97.1589 161.805 97.1589 162.39V171.541C82.8854 171.121 69.2236 165.651 58.6035 156.105L64.8244 149.884C65.0294 149.679 65.192 149.436 65.3029 149.168C65.4138 148.9 65.4709 148.613 65.4709 148.324C65.4709 148.034 65.4138 147.747 65.3029 147.479C65.192 147.211 65.0294 146.968 64.8244 146.763C64.6195 146.558 64.3762 146.395 64.1084 146.284C63.8406 146.173 63.5536 146.116 63.2637 146.116C62.9738 146.116 62.6868 146.173 62.419 146.284C62.1512 146.395 61.9079 146.558 61.7029 146.763L55.429 153.037C45.1284 142.363 38.7044 127.934 38.4394 112.024H48.0579C48.6434 112.024 49.2049 111.792 49.6189 111.378C50.0329 110.964 50.2655 110.402 50.2655 109.817C50.2655 109.231 50.0329 108.67 49.6189 108.256C49.2049 107.842 48.6434 107.609 48.0579 107.609H38.5123C39.3401 92.7124 45.5788 79.244 55.2855 69.1178L62.597 76.4293C62.8015 76.635 63.0447 76.7983 63.3126 76.9097C63.5804 77.0211 63.8677 77.0784 64.1578 77.0784C64.4479 77.0784 64.7351 77.0211 65.0029 76.9097C65.2708 76.7983 65.514 76.635 65.7185 76.4293C65.9237 76.2245 66.0865 75.9812 66.1976 75.7134C66.3086 75.4455 66.3658 75.1585 66.3658 74.8685C66.3658 74.5786 66.3086 74.2915 66.1976 74.0237C66.0865 73.7559 65.9237 73.5126 65.7185 73.3078L58.4468 66.0338C69.0876 56.4051 82.8122 50.8847 97.1567 50.4637V60.8018C97.1567 61.3873 97.3893 61.9488 97.8033 62.3628C98.2173 62.7768 98.7788 63.0094 99.3643 63.0094C99.9497 63.0094 100.511 62.7768 100.925 62.3628C101.339 61.9488 101.572 61.3873 101.572 60.8018V50.4814C116.866 51.1238 130.705 57.4662 141.032 67.4312L133.535 74.9281C133.33 75.1331 133.168 75.3764 133.057 75.6442C132.946 75.912 132.889 76.199 132.889 76.4889C132.889 76.7788 132.946 77.0658 133.057 77.3336C133.168 77.6014 133.33 77.8447 133.535 78.0497C133.74 78.2546 133.984 78.4172 134.251 78.5281C134.519 78.6391 134.806 78.6961 135.096 78.6961C135.386 78.6961 135.673 78.6391 135.941 78.5281C136.209 78.4172 136.452 78.2546 136.657 78.0497L144.101 70.6057C153.013 80.5464 158.695 93.4343 159.483 107.609H149.408C148.822 107.609 148.261 107.842 147.847 108.256C147.433 108.67 147.2 109.231 147.2 109.817C147.2 110.402 147.433 110.964 147.847 111.378C148.261 111.792 148.822 112.024 149.408 112.024H159.558C159.328 126.655 153.787 140.704 143.968 151.553Z" fill="#265881"/>
<path d="M125.819 82.2444L89.7224 101.092C89.3165 101.305 88.9859 101.642 88.7766 102.054L70.2398 138.764C70.0293 139.183 69.9547 139.658 70.0267 140.123C70.0986 140.587 70.3135 141.016 70.6404 141.349C70.9674 141.681 71.3895 141.9 71.8461 141.973C72.3028 142.046 72.7706 141.97 73.1822 141.756L109.279 122.908C109.686 122.695 110.015 122.359 110.225 121.946L128.76 85.2343C128.97 84.8161 129.045 84.3406 128.973 83.8764C128.902 83.4121 128.687 82.9829 128.36 82.6506C128.033 82.3183 127.611 82.0999 127.155 82.027C126.698 81.954 126.231 82.0301 125.819 82.2444V82.2444ZM106.66 119.278L77.2321 134.643L92.3415 104.718L121.77 89.3527L106.66 119.278V119.278Z" fill="#265881"/>
</svg>
