<svg width="200" height="200" viewBox="0 0 200 200" fill="none" xmlns="http://www.w3.org/2000/svg">
<path d="M180.438 65.9215C176.035 55.5153 169.734 46.1699 161.707 38.1453C153.681 30.1208 144.334 23.8202 133.926 19.4186C123.149 14.8613 111.702 12.5505 99.9041 12.5505C88.1059 12.5505 76.6592 14.8613 65.8821 19.4186C55.474 23.8202 46.1269 30.1208 38.1008 38.1453C30.0744 46.1701 23.7727 55.5153 19.3705 65.9215C14.8121 76.6966 12.5009 88.1412 12.5009 99.9374C12.5009 111.734 14.8121 123.178 19.3705 133.953C23.7729 144.36 30.0746 153.705 38.1008 161.73C46.1269 169.754 55.474 176.055 65.8821 180.456C76.6592 185.014 88.1057 187.324 99.9041 187.324C117.589 187.324 134.625 182.07 149.17 172.129C150.277 171.373 150.561 169.862 149.804 168.755C149.048 167.649 147.537 167.365 146.43 168.121C132.696 177.508 116.608 182.469 99.9041 182.469C54.3867 182.469 17.3558 145.446 17.3558 99.9372C17.3558 54.4289 54.3867 17.4052 99.9041 17.4052C145.421 17.4052 182.452 54.4289 182.452 99.9372C182.452 114.892 178.411 129.54 170.765 142.297C170.076 143.447 170.449 144.938 171.599 145.627C172.748 146.316 174.24 145.943 174.929 144.793C183.027 131.282 187.307 115.771 187.307 99.9372C187.307 88.1412 184.996 76.6968 180.438 65.9215Z" fill="#265981"/>
<path d="M46.7343 70.7262L81.453 124.431H92.0156V55.3948H83.1912V102.86C83.1912 107.614 83.3395 110.971 83.6369 112.932H83.4586C83.1612 112.249 82.2107 110.66 80.6063 108.164L46.8235 55.3948H35.6368V124.431H44.4613V75.8963C44.4613 70.9939 44.3421 67.7702 44.1047 66.2249H44.3721C44.9661 67.7109 45.7538 69.2111 46.7343 70.7262Z" fill="#265981"/>
<path d="M124.801 91.6378V87.3801H105.713V124.431H125.638V120.197H110.497V107.735H123.748V103.502H110.497V91.6378H124.801Z" fill="#265981"/>
<path d="M172.687 87.3801L165.415 115.485C165.033 116.873 164.801 118.085 164.722 119.121H164.626C164.466 117.686 164.259 116.506 164.004 115.581L156.35 87.3801H151.638L143.625 115.366C143.179 116.944 142.915 118.212 142.836 119.169H142.692C142.628 117.893 142.429 116.625 142.094 115.366L134.536 87.3801H129.25L139.989 124.431H145.515L153.049 97.6893C153.4 96.4933 153.623 95.2338 153.719 93.9101H153.815C153.878 95.2496 154.078 96.5255 154.413 97.7371L161.876 124.431H167.449L177.83 87.3801H172.687Z" fill="#265981"/>
</svg>
