<svg width="200" height="200" viewBox="0 0 200 200" fill="none" xmlns="http://www.w3.org/2000/svg">
<path d="M106.74 153.08H93.89C93.2453 153.08 92.623 152.844 92.1404 152.416C91.6577 151.989 91.3481 151.4 91.27 150.76L89.92 139.76C86.4779 138.839 83.1726 137.467 80.09 135.68L71.33 142.52C70.8236 142.919 70.1884 143.118 69.5451 143.079C68.9017 143.04 68.2949 142.767 67.84 142.31L58.75 133.22C58.2954 132.764 58.0232 132.157 57.9845 131.515C57.9458 130.872 58.1434 130.237 58.54 129.73L65.39 121C63.5946 117.918 62.2223 114.608 61.31 111.16L50.31 109.81C49.665 109.729 49.0727 109.413 48.6464 108.922C48.2202 108.431 47.99 107.8 48 107.15V94.3C48.0001 93.6553 48.2361 93.033 48.6635 92.5504C49.0909 92.0677 49.6801 91.7581 50.32 91.68L61.32 90.33C62.2323 86.8818 63.6046 83.572 65.4 80.49L58.55 71.74C58.1534 71.2327 57.9558 70.598 57.9945 69.9553C58.0332 69.3125 58.3054 68.706 58.76 68.25L67.85 59.16C68.3118 58.7154 68.9195 58.454 69.5599 58.4245C70.2002 58.3951 70.8294 58.5996 71.33 59L80.09 65.84C83.1726 64.0529 86.4779 62.681 89.92 61.76L91.27 50.76C91.3481 50.1201 91.6577 49.5309 92.1404 49.1035C92.623 48.6761 93.2453 48.4401 93.89 48.44H106.74C107.385 48.4401 108.007 48.6761 108.49 49.1035C108.972 49.5309 109.282 50.1201 109.36 50.76L110.71 61.76C114.155 62.6809 117.464 64.0528 120.55 65.84L129.3 59C129.807 58.6034 130.442 58.4058 131.085 58.4445C131.728 58.4831 132.334 58.7554 132.79 59.21L141.88 68.3C142.339 68.7538 142.614 69.3609 142.652 70.0049C142.691 70.6488 142.491 71.2845 142.09 71.79L135.25 80.54C137.041 83.6241 138.413 86.9332 139.33 90.38L150.33 91.73C150.971 91.8061 151.561 92.115 151.989 92.5981C152.417 93.0812 152.652 93.7047 152.65 94.35V107.2C152.652 107.845 152.417 108.469 151.989 108.952C151.561 109.435 150.971 109.744 150.33 109.82L139.33 111.17C138.413 114.617 137.041 117.926 135.25 121.01L142.09 129.76C142.491 130.266 142.691 130.901 142.652 131.545C142.614 132.189 142.339 132.796 141.88 133.25L132.79 142.34C132.335 142.797 131.728 143.07 131.085 143.109C130.442 143.148 129.806 142.949 129.3 142.55L120.55 135.71C117.464 137.497 114.155 138.869 110.71 139.79L109.36 150.79C109.275 151.424 108.963 152.006 108.481 152.428C107.999 152.849 107.38 153.081 106.74 153.08V153.08ZM96.23 147.8H104.41L105.69 137.28C105.755 136.736 105.988 136.225 106.358 135.82C106.727 135.415 107.214 135.135 107.75 135.02C111.857 134.133 115.77 132.51 119.3 130.23C119.761 129.931 120.304 129.783 120.852 129.809C121.401 129.834 121.928 130.03 122.36 130.37L130.71 136.9L136.5 131.12L130 122.77C129.663 122.337 129.468 121.81 129.443 121.262C129.418 120.714 129.564 120.172 129.86 119.71C132.14 116.18 133.763 112.267 134.65 108.16C134.765 107.624 135.045 107.137 135.45 106.768C135.855 106.398 136.366 106.165 136.91 106.1L147.43 104.81V96.64L136.91 95.35C136.366 95.2851 135.855 95.0516 135.45 94.6822C135.045 94.3129 134.765 93.8261 134.65 93.29C133.763 89.1827 132.14 85.2697 129.86 81.74C129.564 81.2782 129.418 80.7358 129.443 80.1877C129.468 79.6396 129.663 79.1128 130 78.68L136.54 70.33L130.75 64.55L122.4 71.08C121.967 71.4173 121.44 71.6118 120.892 71.6369C120.344 71.662 119.802 71.5163 119.34 71.22C115.81 68.9401 111.897 67.3173 107.79 66.43C107.255 66.3137 106.769 66.0336 106.399 65.6286C106.03 65.2237 105.796 64.7139 105.73 64.17L104.45 53.65H96.23L94.94 64.17C94.8751 64.7144 94.6416 65.225 94.2722 65.6302C93.9029 66.0354 93.4161 66.315 92.88 66.43C88.7727 67.3173 84.8597 68.9401 81.33 71.22C80.8682 71.5163 80.3258 71.662 79.7777 71.6369C79.2296 71.6118 78.7028 71.4173 78.27 71.08L69.92 64.55L64.14 70.33L70.67 78.68C71.01 79.1115 71.2064 79.6387 71.2315 80.1875C71.2566 80.7363 71.1092 81.2792 70.81 81.74C68.5231 85.2683 66.8935 89.1814 66 93.29C65.8878 93.8274 65.609 94.3158 65.2033 94.6856C64.7975 95.0555 64.2855 95.288 63.74 95.35L53.24 96.64V104.81L63.76 106.1C64.3019 106.166 64.8095 106.4 65.2113 106.77C65.6131 107.139 65.889 107.625 66 108.16C66.8873 112.267 68.5101 116.18 70.79 119.71C71.0892 120.171 71.2366 120.714 71.2115 121.262C71.1864 121.811 70.99 122.338 70.65 122.77L64.12 131.12L69.9 136.9L78.25 130.37C78.6815 130.03 79.2087 129.834 79.7575 129.809C80.3063 129.783 80.8492 129.931 81.31 130.23C84.8473 132.505 88.7671 134.121 92.88 135C93.4174 135.112 93.9058 135.391 94.2757 135.797C94.6455 136.202 94.878 136.714 94.94 137.26L96.23 147.8Z" fill="#265881"/>
<path d="M100.32 116.56C97.1863 116.562 94.1224 115.634 91.516 113.895C88.9096 112.155 86.8778 109.681 85.6776 106.786C84.4775 103.892 84.163 100.706 84.7739 97.6322C85.3847 94.5586 86.8935 91.7353 89.1094 89.5194C91.3253 87.3036 94.1486 85.7948 97.2222 85.1839C100.296 84.573 103.482 84.8875 106.376 86.0877C109.271 87.2878 111.745 89.3196 113.485 91.926C115.224 94.5324 116.152 97.5963 116.15 100.73C116.145 104.927 114.475 108.95 111.508 111.918C108.54 114.885 104.517 116.555 100.32 116.56V116.56ZM100.32 90.17C98.231 90.168 96.1883 90.7857 94.4504 91.9448C92.7125 93.104 91.3575 94.7525 90.5567 96.6819C89.7559 98.6114 89.5453 100.735 89.9517 102.784C90.358 104.833 91.3629 106.716 92.8394 108.194C94.3158 109.671 96.1974 110.678 98.2461 111.086C100.295 111.495 102.419 111.286 104.349 110.487C106.279 109.688 107.929 108.335 109.09 106.598C110.25 104.861 110.87 102.819 110.87 100.73C110.865 97.9327 109.752 95.2513 107.775 93.2723C105.798 91.2934 103.117 90.1779 100.32 90.17V90.17Z" fill="#265881"/>
<path d="M100.32 185.27C78.1172 185.333 56.7916 176.608 41 161C40.7357 160.761 40.5224 160.471 40.3731 160.148C40.2237 159.825 40.1413 159.475 40.1308 159.119C40.1203 158.763 40.182 158.408 40.3121 158.077C40.4423 157.745 40.6381 157.443 40.888 157.189C41.1378 156.935 41.4364 156.735 41.7658 156.599C42.0952 156.464 42.4487 156.396 42.8048 156.401C43.1609 156.406 43.5125 156.483 43.8382 156.627C44.1639 156.771 44.457 156.98 44.7 157.24C57.8254 170.172 75.0447 178.128 93.3993 179.743C111.754 181.358 130.098 176.53 145.28 166.088C160.461 155.647 171.532 140.244 176.591 122.527C181.65 104.809 180.38 85.883 173 69C172.719 68.3582 172.704 67.631 172.959 66.9783C173.214 66.3257 173.718 65.8011 174.36 65.52C175.002 65.2389 175.729 65.2242 176.382 65.4793C177.034 65.7343 177.559 66.2382 177.84 66.88C183.456 79.7492 185.78 93.814 184.602 107.806C183.424 121.798 178.781 135.276 171.093 147.025C163.404 158.774 152.911 168.424 140.561 175.104C128.21 181.785 114.391 185.285 100.35 185.29L100.32 185.27ZM24.86 135.28C24.3416 135.28 23.8348 135.127 23.4026 134.841C22.9705 134.554 22.6322 134.147 22.43 133.67C14.851 115.738 13.6914 95.7408 19.1468 77.0532C24.6023 58.3657 36.3387 42.1329 52.3747 31.0951C68.4107 20.0574 87.7641 14.8908 107.168 16.4676C126.571 18.0443 144.837 26.2679 158.88 39.75C159.384 40.234 159.675 40.8984 159.689 41.597C159.703 42.2955 159.439 42.9711 158.955 43.475C158.471 43.9789 157.807 44.2699 157.108 44.284C156.409 44.298 155.734 44.034 155.23 43.55C142.061 30.9142 124.936 23.2081 106.746 21.7322C88.5549 20.2562 70.4118 25.1008 55.3782 35.4483C40.3445 45.7958 29.3407 61.0128 24.2237 78.5313C19.1066 96.0498 20.1897 114.797 27.29 131.61C27.563 132.254 27.5688 132.981 27.3063 133.63C27.0438 134.279 26.5343 134.797 25.89 135.07C25.5637 135.207 25.2137 135.278 24.86 135.28V135.28Z" fill="#265881"/>
<path d="M157.05 44.29H140C139.298 44.29 138.626 44.0113 138.13 43.5153C137.634 43.0193 137.355 42.3465 137.355 41.645C137.355 40.9435 137.634 40.2707 138.13 39.7747C138.626 39.2787 139.298 39 140 39H157.09C157.79 39 158.462 39.2781 158.957 39.7732C159.452 40.2683 159.73 40.9398 159.73 41.64C159.73 42.3402 159.452 43.0117 158.957 43.5068C158.462 44.0019 157.79 44.28 157.09 44.28L157.05 44.29Z" fill="#265881"/>
<path d="M157.06 44.29H156.9C156.202 44.2462 155.55 43.9284 155.085 43.4058C154.621 42.8832 154.382 42.1982 154.42 41.5L155.42 24.64C155.473 23.9503 155.795 23.309 156.316 22.8542C156.838 22.3994 157.517 22.1673 158.207 22.208C158.898 22.2486 159.545 22.5586 160.009 23.0714C160.473 23.5842 160.718 24.2588 160.69 24.95L159.69 41.8C159.654 42.473 159.361 43.1065 158.872 43.5698C158.383 44.0332 157.734 44.291 157.06 44.29V44.29ZM59.63 160.55H42.54C41.8399 160.55 41.1684 160.272 40.6733 159.777C40.1782 159.282 39.9 158.61 39.9 157.91C39.9 157.21 40.1782 156.538 40.6733 156.043C41.1684 155.548 41.8399 155.27 42.54 155.27H59.63C60.3302 155.27 61.0017 155.548 61.4968 156.043C61.9919 156.538 62.27 157.21 62.27 157.91C62.27 158.61 61.9919 159.282 61.4968 159.777C61.0017 160.272 60.3302 160.55 59.63 160.55V160.55Z" fill="#265881"/>
<path d="M41.58 177.41H41.43C40.7312 177.371 40.0764 177.057 39.6095 176.535C39.1426 176.014 38.9018 175.329 38.94 174.63L39.94 157.77C39.9954 157.083 40.3174 156.445 40.8371 155.992C41.3569 155.539 42.0332 155.307 42.7215 155.346C43.4098 155.386 44.0554 155.692 44.5204 156.201C44.9854 156.71 45.2329 157.381 45.21 158.07L44.21 174.93C44.1693 175.6 43.8746 176.23 43.386 176.691C42.8974 177.151 42.2516 177.409 41.58 177.41V177.41Z" fill="#265881"/>
</svg>
